<svg width="37" height="37" viewBox="0 0 37 37" fill="none" xmlns="http://www.w3.org/2000/svg">
<g clip-path="url(#clip0_1_78)">
<path d="M17.6972 11.3783L6.06032 20.9626V31.3068C6.06032 31.5746 6.16671 31.8315 6.3561 32.0209C6.54549 32.2103 6.80235 32.3167 7.07019 32.3167L14.1431 32.2984C14.41 32.297 14.6656 32.1901 14.8539 32.0008C15.0422 31.8116 15.1479 31.5555 15.1479 31.2885V25.2476C15.1479 24.9798 15.2543 24.7229 15.4437 24.5335C15.6331 24.3441 15.8899 24.2377 16.1578 24.2377H20.1972C20.4651 24.2377 20.7219 24.3441 20.9113 24.5335C21.1007 24.7229 21.2071 24.9798 21.2071 25.2476V31.2841C21.2067 31.417 21.2325 31.5486 21.2831 31.6715C21.3336 31.7944 21.4079 31.9061 21.5018 32.0002C21.5956 32.0943 21.707 32.169 21.8298 32.2199C21.9525 32.2709 22.0841 32.2971 22.217 32.2971L29.2873 32.3167C29.5552 32.3167 29.812 32.2103 30.0014 32.0209C30.1908 31.8315 30.2972 31.5746 30.2972 31.3068V20.9557L18.6629 11.3783C18.5261 11.268 18.3557 11.2079 18.18 11.2079C18.0043 11.2079 17.8339 11.268 17.6972 11.3783ZM36.0787 17.8926L30.8021 13.5432V4.80089C30.8021 4.60001 30.7223 4.40737 30.5803 4.26533C30.4382 4.12329 30.2456 4.04349 30.0447 4.04349H26.5102C26.3093 4.04349 26.1167 4.12329 25.9746 4.26533C25.8326 4.40737 25.7528 4.60001 25.7528 4.80089V9.3838L20.1019 4.73462C19.5596 4.28837 18.8792 4.04438 18.1769 4.04438C17.4746 4.04438 16.7941 4.28837 16.2518 4.73462L0.275026 17.8926C0.198331 17.956 0.134878 18.0339 0.0882927 18.1218C0.0417074 18.2097 0.0129027 18.3059 0.00352439 18.405C-0.0058539 18.5041 0.00437805 18.604 0.0336356 18.6991C0.0628931 18.7942 0.110603 18.8826 0.174039 18.9593L1.78352 20.9159C1.84678 20.9928 1.9246 21.0565 2.01251 21.1033C2.10041 21.1501 2.19669 21.1791 2.29583 21.1887C2.39497 21.1983 2.49502 21.1882 2.59025 21.159C2.68549 21.1298 2.77403 21.0822 2.85082 21.0188L17.6972 8.79051C17.8339 8.68026 18.0043 8.62014 18.18 8.62014C18.3557 8.62014 18.5261 8.68026 18.6629 8.79051L33.5098 21.0188C33.5865 21.0822 33.6749 21.1299 33.77 21.1592C33.8651 21.1884 33.965 21.1987 34.0641 21.1893C34.1632 21.1799 34.2594 21.1511 34.3473 21.1045C34.4352 21.0579 34.5131 20.9945 34.5765 20.9178L36.186 18.9612C36.2494 18.8841 36.2969 18.7952 36.3258 18.6997C36.3547 18.6042 36.3644 18.5039 36.3545 18.4046C36.3445 18.3053 36.315 18.2089 36.2677 18.1211C36.2204 18.0332 36.1561 17.9555 36.0787 17.8926Z" fill="black"/>
</g>
<defs>
<clipPath id="clip0_1_78">
<rect width="36.3553" height="36.3553" fill="white"/>
</clipPath>
</defs>
</svg>
