<svg width="36" height="35" viewBox="0 0 36 35" fill="none" xmlns="http://www.w3.org/2000/svg">
<g clip-path="url(#clip0_1_44)">
<path d="M35.5 12.0313C35.5 18.676 30.1134 24.0625 23.4688 24.0625C22.7018 24.0625 21.9519 23.9899 21.2247 23.8527L19.5833 25.6994C19.4293 25.8725 19.2405 26.0111 19.0291 26.106C18.8178 26.2009 18.5887 26.25 18.357 26.25H15.8125V28.9844C15.8125 29.8905 15.078 30.625 14.1719 30.625H11.4375V33.3594C11.4375 34.2655 10.703 35 9.79688 35H2.14062C1.23452 35 0.5 34.2655 0.5 33.3594V28.0233C0.5 27.5882 0.672881 27.1709 0.980498 26.8632L12.0412 15.8025C11.65 14.6162 11.4375 13.3486 11.4375 12.0312C11.4375 5.38658 16.824 6.836e-05 23.4687 6.53008e-10C30.133 -6.83587e-05 35.5 5.36696 35.5 12.0313ZM23.4688 8.75C23.4688 10.5622 24.9378 12.0312 26.75 12.0312C28.5622 12.0312 30.0312 10.5622 30.0312 8.75C30.0312 6.93779 28.5622 5.46875 26.75 5.46875C24.9378 5.46875 23.4688 6.93779 23.4688 8.75Z" fill="black"/>
</g>
<defs>
<clipPath id="clip0_1_44">
<rect width="35" height="35" fill="white" transform="translate(0.5)"/>
</clipPath>
</defs>
</svg>
