<svg width="37" height="37" viewBox="0 0 37 37" fill="none" xmlns="http://www.w3.org/2000/svg">
<g clip-path="url(#clip0_1_71)">
<path d="M28.8939 4.54481H23.2134C23.2134 2.03828 21.1755 0.000396729 18.669 0.000396729C16.1625 0.000396729 14.1246 2.03828 14.1246 4.54481H8.44408C6.56241 4.54481 5.03577 6.07145 5.03577 7.95312V32.9474C5.03577 34.8291 6.56241 36.3557 8.44408 36.3557H28.8939C30.7756 36.3557 32.3022 34.8291 32.3022 32.9474V7.95312C32.3022 6.07145 30.7756 4.54481 28.8939 4.54481ZM11.8524 30.1071C10.908 30.1071 10.1482 29.3474 10.1482 28.403C10.1482 27.4586 10.908 26.6988 11.8524 26.6988C12.7968 26.6988 13.5565 27.4586 13.5565 28.403C13.5565 29.3474 12.7968 30.1071 11.8524 30.1071ZM11.8524 23.2905C10.908 23.2905 10.1482 22.5308 10.1482 21.5864C10.1482 20.642 10.908 19.8822 11.8524 19.8822C12.7968 19.8822 13.5565 20.642 13.5565 21.5864C13.5565 22.5308 12.7968 23.2905 11.8524 23.2905ZM11.8524 16.4739C10.908 16.4739 10.1482 15.7141 10.1482 14.7697C10.1482 13.8254 10.908 13.0656 11.8524 13.0656C12.7968 13.0656 13.5565 13.8254 13.5565 14.7697C13.5565 15.7141 12.7968 16.4739 11.8524 16.4739ZM18.669 2.84066C19.6134 2.84066 20.3732 3.60042 20.3732 4.54481C20.3732 5.4892 19.6134 6.24897 18.669 6.24897C17.7246 6.24897 16.9649 5.4892 16.9649 4.54481C16.9649 3.60042 17.7246 2.84066 18.669 2.84066ZM27.7578 28.971C27.7578 29.2835 27.5022 29.5391 27.1898 29.5391H16.9649C16.6524 29.5391 16.3968 29.2835 16.3968 28.971V27.8349C16.3968 27.5225 16.6524 27.2669 16.9649 27.2669H27.1898C27.5022 27.2669 27.7578 27.5225 27.7578 27.8349V28.971ZM27.7578 22.1544C27.7578 22.4668 27.5022 22.7225 27.1898 22.7225H16.9649C16.6524 22.7225 16.3968 22.4668 16.3968 22.1544V21.0183C16.3968 20.7059 16.6524 20.4503 16.9649 20.4503H27.1898C27.5022 20.4503 27.7578 20.7059 27.7578 21.0183V22.1544ZM27.7578 15.3378C27.7578 15.6502 27.5022 15.9058 27.1898 15.9058H16.9649C16.6524 15.9058 16.3968 15.6502 16.3968 15.3378V14.2017C16.3968 13.8893 16.6524 13.6336 16.9649 13.6336H27.1898C27.5022 13.6336 27.7578 13.8893 27.7578 14.2017V15.3378Z" fill="black"/>
</g>
<defs>
<clipPath id="clip0_1_71">
<rect width="36.3553" height="36.3553" fill="white" transform="translate(0.492188)"/>
</clipPath>
</defs>
</svg>
