<svg width="37" height="37" viewBox="0 0 37 37" fill="none" xmlns="http://www.w3.org/2000/svg">
<g clip-path="url(#clip0_1_64)">
<path d="M5.4533 16.3597C7.45852 16.3597 9.08883 14.7293 9.08883 12.7241C9.08883 10.7189 7.45852 9.08859 5.4533 9.08859C3.44807 9.08859 1.81777 10.7189 1.81777 12.7241C1.81777 14.7293 3.44807 16.3597 5.4533 16.3597ZM30.902 16.3597C32.9072 16.3597 34.5375 14.7293 34.5375 12.7241C34.5375 10.7189 32.9072 9.08859 30.902 9.08859C28.8968 9.08859 27.2665 10.7189 27.2665 12.7241C27.2665 14.7293 28.8968 16.3597 30.902 16.3597ZM32.7198 18.1774H29.0842C28.0845 18.1774 27.1813 18.5807 26.5223 19.234C28.8116 20.4894 30.4362 22.7559 30.7884 25.4485H34.5375C35.543 25.4485 36.3553 24.6362 36.3553 23.6307V21.813C36.3553 19.8077 34.725 18.1774 32.7198 18.1774ZM18.1777 18.1774C21.6939 18.1774 24.5398 15.3315 24.5398 11.8152C24.5398 8.299 21.6939 5.45306 18.1777 5.45306C14.6614 5.45306 11.8155 8.299 11.8155 11.8152C11.8155 15.3315 14.6614 18.1774 18.1777 18.1774ZM22.5403 19.9952H22.0688C20.8873 20.5632 19.5751 20.9041 18.1777 20.9041C16.7802 20.9041 15.4737 20.5632 14.2865 19.9952H13.815C10.2022 19.9952 7.27106 22.9263 7.27106 26.5391V28.1751C7.27106 29.6805 8.49237 30.9018 9.99771 30.9018H26.3576C27.8629 30.9018 29.0842 29.6805 29.0842 28.1751V26.5391C29.0842 22.9263 26.1531 19.9952 22.5403 19.9952ZM9.83298 19.234C9.17404 18.5807 8.27083 18.1774 7.27106 18.1774H3.63553C1.63031 18.1774 0 19.8077 0 21.813V23.6307C0 24.6362 0.812314 25.4485 1.81777 25.4485H5.56123C5.9191 22.7559 7.54373 20.4894 9.83298 19.234Z" fill="black"/>
</g>
<defs>
<clipPath id="clip0_1_64">
<rect width="36.3553" height="36.3553" fill="white"/>
</clipPath>
</defs>
</svg>
