<svg width="40" height="40" viewBox="0 0 40 40" fill="none" xmlns="http://www.w3.org/2000/svg">
<path d="M13.4206 21.872H10.438C9.88871 21.872 9.44381 22.3169 9.44381 22.8662V34.7964C9.44381 35.3457 9.88871 35.7906 10.438 35.7906H13.4206C13.9699 35.7906 14.4148 35.3457 14.4148 34.7964V22.8662C14.4148 22.3169 13.9699 21.872 13.4206 21.872ZM5.46705 27.8371H2.48448C1.9352 27.8371 1.4903 28.282 1.4903 28.8313V34.7964C1.4903 35.3457 1.9352 35.7906 2.48448 35.7906H5.46705C6.01634 35.7906 6.46124 35.3457 6.46124 34.7964V28.8313C6.46124 28.282 6.01634 27.8371 5.46705 27.8371ZM21.3741 15.9068H18.3915C17.8422 15.9068 17.3973 16.3517 17.3973 16.901V34.7964C17.3973 35.3457 17.8422 35.7906 18.3915 35.7906H21.3741C21.9234 35.7906 22.3683 35.3457 22.3683 34.7964V16.901C22.3683 16.3517 21.9234 15.9068 21.3741 15.9068ZM29.3276 9.9417H26.345C25.7957 9.9417 25.3508 10.3866 25.3508 10.9359V34.7964C25.3508 35.3457 25.7957 35.7906 26.345 35.7906H29.3276C29.8769 35.7906 30.3218 35.3457 30.3218 34.7964V10.9359C30.3218 10.3866 29.8769 9.9417 29.3276 9.9417ZM37.2811 3.97656H34.2985C33.7493 3.97656 33.3044 4.42146 33.3044 4.97075V34.7964C33.3044 35.3457 33.7493 35.7906 34.2985 35.7906H37.2811C37.8304 35.7906 38.2753 35.3457 38.2753 34.7964V4.97075C38.2753 4.42146 37.8304 3.97656 37.2811 3.97656Z" fill="black"/>
</svg>
