<svg width="37" height="37" viewBox="0 0 37 37" fill="none" xmlns="http://www.w3.org/2000/svg">
<path d="M15.883 4.77612L17.4677 3.19147C18.1386 2.52049 19.2236 2.52049 19.8875 3.19147L33.7639 17.0607C34.4348 17.7317 34.4348 18.8167 33.7639 19.4805L19.8875 33.3569C19.2165 34.0279 18.1315 34.0279 17.4677 33.3569L15.883 31.7723C15.2049 31.0941 15.2192 29.9877 15.9116 29.3239L24.5129 21.1294H3.99814C3.04878 21.1294 2.285 20.3656 2.285 19.4163V17.1321C2.285 16.1827 3.04878 15.419 3.99814 15.419H24.5129L15.9116 7.22447C15.212 6.56063 15.1978 5.45423 15.883 4.77612Z" fill="black"/>
</svg>
