<svg width="40" height="41" viewBox="0 0 40 41" fill="none" xmlns="http://www.w3.org/2000/svg">
<path d="M33.469 17.4295L32.6787 15.4537L31.2774 11.95C30.0743 8.94273 27.2049 7 23.9656 7H15.0359C11.7973 7 8.92714 8.94273 7.72409 11.95L6.32276 15.4537L5.53245 17.4295C3.83651 18.0742 2.62573 19.7027 2.62573 21.625V25C2.62573 26.1334 3.05886 27.1565 3.75073 27.9482V31.75C3.75073 32.9924 4.75831 34 6.00073 34H8.25073C9.49315 34 10.5007 32.9924 10.5007 31.75V29.5H28.5007V31.75C28.5007 32.9924 29.5083 34 30.7507 34H33.0007C34.2432 34 35.2507 32.9924 35.2507 31.75V27.9482C35.9426 27.1572 36.3757 26.1341 36.3757 25V21.625C36.3757 19.7027 35.165 18.0742 33.469 17.4295ZM11.9021 13.6213C12.4146 12.3402 13.6557 11.5 15.0359 11.5H23.9656C25.3458 11.5 26.5868 12.3402 27.0994 13.6213L28.5007 17.125H10.5007L11.9021 13.6213ZM8.25073 24.9859C6.90073 24.9859 6.00073 24.0887 6.00073 22.743C6.00073 21.3972 6.90073 20.5 8.25073 20.5C9.60073 20.5 11.6257 22.5187 11.6257 23.8645C11.6257 25.2102 9.60073 24.9859 8.25073 24.9859ZM30.7507 24.9859C29.4007 24.9859 27.3757 25.2102 27.3757 23.8645C27.3757 22.5187 29.4007 20.5 30.7507 20.5C32.1007 20.5 33.0007 21.3972 33.0007 22.743C33.0007 24.0887 32.1007 24.9859 30.7507 24.9859Z" fill="black"/>
</svg>
